<svg xmlns="http://www.w3.org/2000/svg" viewBox="0 0.1 240 45">
  <path d="M21.4,7.7v20.1h-4.2V0.1h-1h-0.6h-1.2h-5H8H7.6h-1v27.7H2.7V7.7H0v32.2h2.7V29.7v-0.2h4.2v15.4h2.7V30.7v-1.2 h5v15.4h2.7V30.7v-1.2h4.1v10.4h2.7V29.7v-1.9V7.7H21.4z M9.6,1.8h5v18.8h-5C9.6,20.6,9.6,1.8,9.6,1.8z M9.6,22.4h5v5.4h-5 C9.6,27.8,9.6,22.4,9.6,22.4z
M221.9,32.4v-6.7h9.5v-3.1h-9.5v-9.9h12v-3h-16.7v25.8h17.2v-3.1H221.9z M151.6,25.7h9.5v-3.1h-9.5v-9.9h11.9 v-3h-16.7v25.8H164v-3.1h-12.4V25.7z M187.4,17.9c0-2.1-1-4.7-3.2-6.3c-1.8-1.3-4.5-1.9-8-1.9h-2.4h-4.7v25.8h4.7v-8.6v-0.7h3.9 c0.1,0,0.2,0,0.4,0l5.9,9.3h5.2l-6.6-10.1C186.1,23.9,187.4,20.9,187.4,17.9z M176.6,23.1h-2.8V12.7h2.8c4,0,6.2,2.1,6.2,5.2 S180.6,23.1,176.6,23.1z M211.6,17.9c0-2.1-1-4.7-3.2-6.3c-1.8-1.3-4.5-1.9-8-1.9H198h-4.7v25.8h4.7v-8.6v-0.7h3.9 c0.1,0,0.2,0,0.4,0l5.9,9.3h5.2l-6.6-10.1C210.3,23.9,211.6,20.9,211.6,17.9z M200.8,23.1H198V12.7h2.8c4,0,6.2,2.1,6.2,5.2 S204.8,23.1,200.8,23.1z M121.8,12.7h8.3v22.8h4.8V12.7h8.3v-3h-21.4V12.7z M113.5,25c0,5.1-2,7.9-6.3,7.9s-6.1-2.8-6.1-7.9V9.7 h-4.7V25c0,6.5,3.8,10.8,10.8,10.8s11-4.2,11-10.8V9.7h-4.7C113.5,9.7,113.5,25,113.5,25z M80.4,9.7L69.1,35.5h3.7l2.5-5.9h11.9 l2.5,5.9h4.9L83.4,9.7H80.4z M76.7,26.5l4.6-10.8l4.6,10.8H76.7z M61.1,20.3H48.5V9.7h-4.8v25.8h4.8V23.4h12.6v12.1h4.7V9.7h-4.7 V20.3z" fill="#ffffff"/>
</svg>